<svg xmlns="http://www.w3.org/2000/svg" viewBox="0 0 512 512">
  <circle cx="256" cy="256" r="248" fill="#F4EDDC"/>
  <path fill="#1E3D2C" fill-rule="evenodd" d="M255.4,103.5 L216.2,137.8 L205.2,154.9 L199.6,172.0 L200.7,198.5 L225.6,260.4 L231.1,289.2 L225.1,287.5 L217.9,256.0 L203.5,228.4 L188.6,211.8 L170.9,201.3 L147.2,198.5 L126.2,206.3 L111.2,221.7 L104.1,240.5 L104.1,258.2 L109.6,273.7 L118.4,285.3 L132.2,294.1 L149.4,296.3 L151.6,276.4 L165.4,263.7 L179.2,263.7 L191.4,272.0 L201.9,293.6 L188.6,299.6 L184.7,309.0 L189.7,316.8 L203.5,322.3 L203.5,327.3 L198.0,336.7 L188.0,343.9 L174.8,345.0 L167.6,342.7 L169.3,350.5 L180.9,364.3 L191.4,367.6 L200.2,366.5 L214.6,354.3 L222.3,338.9 L225.1,326.7 L231.1,326.2 L226.7,346.1 L214.6,369.3 L232.8,392.5 L253.2,406.3 L261.0,404.1 L278.7,391.4 L295.8,368.7 L284.2,347.7 L279.2,326.2 L284.7,326.7 L295.2,353.8 L307.4,365.4 L326.2,365.4 L338.9,353.8 L342.2,342.2 L331.7,345.0 L320.1,342.7 L311.8,336.1 L305.7,324.0 L319.5,317.3 L325.1,310.7 L323.4,301.9 L307.9,293.0 L314.0,278.7 L322.3,268.7 L336.1,262.6 L349.9,266.5 L359.3,278.1 L360.4,296.3 L369.3,296.3 L383.1,291.9 L394.7,282.5 L402.4,270.4 L406.3,257.7 L403.5,230.6 L389.2,210.1 L375.9,201.9 L366.0,199.1 L342.7,200.2 L322.3,211.2 L307.9,226.7 L294.1,251.6 L284.7,289.2 L278.1,288.0 L284.2,261.0 L307.9,204.1 L310.7,173.7 L305.2,154.9 L297.4,142.2 Z M249.4,326.7 L255.4,326.7 L256.0,327.3 L261.5,327.3 L262.1,327.8 L262.1,333.9 L261.5,334.5 L261.5,337.8 L261.0,338.3 L261.0,343.3 L260.4,343.9 L260.4,346.6 L259.9,347.2 L259.9,351.6 L259.3,352.1 L259.3,356.0 L258.8,356.6 L258.8,358.8 L258.2,359.3 L258.2,363.2 L257.7,363.7 L257.7,364.8 L257.1,365.4 L257.1,367.6 L256.6,368.2 L256.6,369.8 L256.0,370.4 L256.0,372.6 L255.4,373.1 L254.9,373.1 L253.8,372.0 L253.8,369.8 L253.2,369.3 L253.2,367.1 L252.7,366.5 L252.7,364.3 L252.1,363.7 L252.1,359.9 L251.6,359.3 L251.6,357.1 L251.0,356.6 L251.0,353.2 L250.5,352.7 L250.5,349.4 L249.9,348.8 L249.9,345.5 L249.4,345.0 L249.4,338.9 L248.8,338.3 L248.8,335.0 L248.3,334.5 L248.3,327.8 Z M349.9,221.7 L351.6,221.7 L352.1,222.3 L352.7,222.3 L353.2,222.8 L354.3,222.8 L354.9,223.4 L355.5,223.4 L356.0,224.0 L357.1,224.0 L357.7,224.5 L358.2,224.5 L358.8,225.1 L359.9,225.1 L360.4,225.6 L361.5,225.6 L362.1,226.2 L364.3,226.2 L365.4,225.1 L366.0,225.1 L367.1,224.0 L367.6,224.0 L368.7,222.8 L369.3,222.8 L370.9,221.2 L371.5,221.2 L372.0,220.6 L372.6,220.6 L373.7,219.5 L374.2,219.5 L374.8,219.0 L375.3,219.0 L375.9,219.5 L375.9,227.8 L375.3,228.4 L375.3,232.8 L378.1,235.6 L378.7,235.6 L379.8,236.7 L380.3,236.7 L382.0,238.3 L382.5,238.3 L384.7,240.5 L385.3,240.5 L386.9,242.2 L385.8,243.3 L383.6,243.3 L383.1,243.8 L380.9,243.8 L380.3,244.4 L376.4,244.4 L375.9,244.9 L373.7,244.9 L373.1,245.5 L373.1,247.2 L372.6,247.7 L372.6,250.5 L372.0,251.0 L372.0,252.7 L371.5,253.2 L371.5,256.6 L370.9,257.1 L370.9,258.2 L370.4,258.8 L370.4,259.3 L369.3,260.4 L368.7,259.9 L368.7,259.3 L367.6,258.2 L367.6,257.7 L366.5,256.6 L366.5,256.0 L365.4,254.9 L365.4,254.3 L364.3,253.2 L364.3,252.7 L363.7,252.1 L363.7,251.6 L362.6,250.5 L362.6,249.9 L362.1,249.4 L362.1,248.8 L361.0,247.7 L361.0,247.2 L360.4,246.6 L358.8,246.6 L358.2,246.1 L357.7,246.1 L357.1,246.6 L356.0,246.6 L355.5,246.1 L354.9,246.1 L354.3,246.6 L353.8,246.6 L353.2,246.1 L352.7,246.1 L352.1,246.6 L345.0,246.6 L343.9,245.5 L343.9,244.9 L348.3,240.5 L348.8,240.5 L348.8,240.0 L350.5,238.3 L351.0,238.3 L354.3,235.0 L354.3,233.9 L353.8,233.3 L353.8,232.2 L353.2,231.7 L353.2,231.1 L352.7,230.6 L352.7,230.0 L352.1,229.5 L352.1,228.9 L351.6,228.4 L351.6,227.3 L351.0,226.7 L351.0,226.2 L350.5,225.6 L350.5,225.1 L349.9,224.5 L349.9,223.4 L349.4,222.8 L349.4,222.3 Z M123.4,241.6 L123.9,241.1 L124.5,241.1 L125.1,240.5 L125.6,240.5 L127.8,238.3 L128.4,238.3 L130.0,236.7 L130.6,236.7 L131.7,235.6 L132.2,235.6 L133.9,233.9 L134.4,233.9 L134.4,219.5 L135.0,219.0 L135.6,219.0 L136.1,219.5 L136.7,219.5 L137.8,220.6 L138.3,220.6 L139.4,221.7 L140.0,221.7 L141.1,222.8 L141.6,222.8 L143.3,224.5 L143.8,224.5 L144.4,225.1 L144.9,225.1 L146.0,226.2 L146.6,226.2 L147.2,226.7 L147.7,226.2 L148.3,226.2 L148.8,225.6 L149.9,225.6 L150.5,225.1 L151.6,225.1 L152.1,224.5 L152.7,224.5 L153.2,224.0 L153.8,224.0 L154.3,223.4 L155.4,223.4 L156.0,222.8 L157.1,222.8 L158.2,221.7 L160.4,221.7 L161.0,222.3 L161.0,222.8 L160.4,223.4 L160.4,224.5 L159.3,225.6 L159.3,226.7 L158.8,227.3 L158.8,227.8 L158.2,228.4 L158.2,229.5 L157.7,230.0 L157.7,230.6 L157.1,231.1 L157.1,231.7 L156.5,232.2 L156.5,233.3 L156.0,233.9 L156.0,235.0 L160.4,239.4 L161.0,239.4 L164.8,243.3 L165.4,243.3 L165.9,243.8 L165.9,244.4 L166.5,244.4 L167.0,244.9 L167.0,245.5 L166.5,246.1 L164.8,246.1 L164.3,246.6 L161.5,246.6 L161.0,246.1 L160.4,246.6 L149.9,246.6 L149.4,247.2 L149.4,247.7 L148.3,248.8 L148.3,249.4 L147.2,250.5 L147.2,251.0 L146.6,251.6 L146.6,252.1 L145.5,253.2 L145.5,253.8 L144.4,254.9 L144.4,255.4 L143.3,256.6 L143.3,257.1 L142.7,257.7 L142.7,258.2 L141.6,259.3 L141.6,259.9 L141.1,260.4 L140.5,260.4 L140.0,259.9 L140.0,259.3 L139.4,258.8 L139.4,257.1 L138.9,256.6 L138.9,253.2 L138.3,252.7 L138.3,250.5 L137.8,249.9 L137.8,247.2 L137.2,246.6 L137.2,245.5 L136.7,244.9 L134.4,244.9 L133.9,244.4 L130.0,244.4 L129.5,243.8 L127.8,243.8 L127.3,243.3 L123.9,243.3 L123.4,242.7 Z M254.9,151.6 L256.0,152.7 L256.0,159.9 L256.6,160.4 L256.6,164.8 L257.1,165.4 L257.1,174.8 L257.7,175.3 L257.7,180.9 L258.2,181.4 L258.2,189.1 L258.8,189.7 L258.8,195.8 L259.3,196.3 L259.3,207.4 L259.9,207.9 L259.9,215.7 L260.4,216.2 L260.4,225.6 L261.0,226.2 L261.0,241.1 L261.5,241.6 L261.5,254.9 L262.1,255.4 L262.1,287.5 L261.0,288.6 L249.4,288.6 L248.3,287.5 L248.3,284.2 L247.7,283.6 L247.7,274.8 L248.3,274.2 L248.3,246.1 L248.8,245.5 L248.8,238.9 L249.4,238.3 L249.4,223.4 L249.9,222.8 L249.9,215.1 L250.5,214.6 L250.5,203.5 L251.0,203.0 L251.0,194.1 L251.6,193.6 L251.6,187.5 L252.1,186.9 L252.1,176.4 L252.7,175.9 L252.7,172.6 L253.2,172.0 L253.2,162.1 L253.8,161.5 L253.8,154.3 L254.3,153.8 L254.3,152.1 Z"/>
</svg>